<?xml version="1.0" encoding="UTF-8" standalone="no"?>
<!-- Created with Inkscape (http://www.inkscape.org/) -->

<svg
   xmlns:dc="http://purl.org/dc/elements/1.1/"
   xmlns:cc="http://creativecommons.org/ns#"
   xmlns:rdf="http://www.w3.org/1999/02/22-rdf-syntax-ns#"
   xmlns:svg="http://www.w3.org/2000/svg"
   xmlns="http://www.w3.org/2000/svg"
   xmlns:sodipodi="http://sodipodi.sourceforge.net/DTD/sodipodi-0.dtd"
   xmlns:inkscape="http://www.inkscape.org/namespaces/inkscape"
   id="svg3419"
   sodipodi:docname="cog.svg"
   viewBox="0 0 299.99999 300"
   version="1.1"
   inkscape:version="0.92.3 (2405546, 2018-03-11)"
   width="300"
   height="300">
  <defs
     id="defs8" />
  <sodipodi:namedview
     id="base"
     bordercolor="#666666"
     inkscape:pageshadow="2"
     inkscape:window-y="27"
     fit-margin-left="0"
     pagecolor="#ffffff"
     fit-margin-top="0"
     inkscape:window-maximized="1"
     inkscape:zoom="1.3582227"
     inkscape:window-x="67"
     inkscape:window-height="1025"
     showgrid="false"
     borderopacity="1.0"
     inkscape:current-layer="layer1"
     inkscape:cx="-70.915656"
     inkscape:cy="94.089826"
     fit-margin-right="0"
     fit-margin-bottom="0"
     inkscape:window-width="1853"
     inkscape:pageopacity="0.0"
     inkscape:document-units="px" />
  <g
     id="layer1"
     inkscape:label="Ebene 1"
     inkscape:groupmode="layer"
     transform="translate(-263.31,-418.69)">
    <path
       id="path3243"
       style="color:#000000;fill:#333333;stroke:#333333;stroke-width:6.64825535"
       inkscape:connector-curvature="0"
       d="m 405.64323,422.02299 c -3.09402,0.21182 -6.10163,0.69095 -9.1416,1.0388 h -0.2059 l -7.27121,39.68189 c -11.85265,2.69905 -23.00216,7.27972 -33.03401,13.50434 l -32.63886,-23.47673 c -8.81772,6.84564 -16.84166,14.82966 -23.89127,23.47673 l 22.64576,33.03402 c -6.87566,10.50758 -12.04655,22.50629 -14.95867,35.11051 -3.5e-4,0.0601 -3.5e-4,0.19753 0,0.2073 l -39.47462,6.23277 c -0.72155,5.89455 -1.03872,11.98649 -1.03872,18.07495 0,4.98164 0.13753,9.89665 0.62305,14.75083 l 39.47463,7.06374 c 2.80732,13.70813 8.14053,26.51012 15.58162,37.81266 l -23.47674,32.20303 c 6.7236,8.34703 14.48584,15.94675 22.85301,22.64575 l 33.24128,-22.85302 c 11.61768,7.41106 24.58665,12.60771 38.64364,15.16652 l 6.23256,39.26736 c 4.42919,0.40286 8.97152,0.4155 13.50474,0.4155 6.39974,0 12.51318,-0.24256 18.6983,-1.0388 l 7.47962,-40.09833 c 13.3463,-3.32142 25.88446,-9.08349 36.77247,-16.82848 l 31.99383,23.26947 c 8.29725,-7.05911 15.88458,-15.1731 22.43849,-23.8932 l -23.26947,-33.65774 c 6.30192,-10.88317 10.66777,-22.89175 12.88083,-35.73423 l 39.26736,-6.23275 c 0.34551,-4.09759 0.41252,-8.07159 0.41252,-12.25789 0,-7.27468 -0.846,-14.40739 -1.87032,-21.3983 l -39.88915,-7.2716 c -3.12595,-11.54291 -8.25501,-22.31258 -14.75043,-31.99577 l 23.47674,-32.20302 c -7.2772,-8.89947 -15.57833,-17.12059 -24.72224,-24.10047 l -33.865,23.26948 c -9.73316,-5.75645 -20.20703,-10.17306 -31.57932,-12.67337 l -6.23255,-39.47462 c -5.67278,-0.66735 -11.39263,-1.03879 -17.24359,-1.03879 -1.5817,0 -3.20907,-0.0465 -4.77903,0 -0.76502,0.0244 -1.52237,-0.0465 -2.28491,0 -0.20591,0.0135 -0.41881,-0.0135 -0.62506,0 z m 5.40197,100.97126 c 0.75945,-0.0412 1.51714,0 2.28568,0 24.59247,0 44.66779,20.07533 44.66779,44.66779 0,24.59247 -20.07532,44.46052 -44.66779,44.46052 -24.59245,0 -44.46052,-19.86805 -44.46052,-44.46052 0,-23.82346 18.64599,-43.47457 42.17484,-44.66779 z" />
  </g>
  <metadata
     id="metadata5">
    <rdf:RDF>
      <cc:Work>
        <dc:format>image/svg+xml</dc:format>
        <dc:type
           rdf:resource="http://purl.org/dc/dcmitype/StillImage" />
        <cc:license
           rdf:resource="http://creativecommons.org/publicdomain/zero/1.0/" />
        <dc:publisher>
          <cc:Agent
             rdf:about="http://openclipart.org/">
            <dc:title>Openclipart</dc:title>
          </cc:Agent>
        </dc:publisher>
        <dc:title>gear</dc:title>
        <dc:date>2012-05-07T08:05:23</dc:date>
        <dc:description>Tango Icon Gear / Shape</dc:description>
        <dc:source>https://openclipart.org/detail/169903/gear-by-hank0071</dc:source>
        <dc:creator>
          <cc:Agent>
            <dc:title>hank0071</dc:title>
          </cc:Agent>
        </dc:creator>
        <dc:subject>
          <rdf:Bag>
            <rdf:li>gear</rdf:li>
            <rdf:li>icon</rdf:li>
            <rdf:li>system</rdf:li>
          </rdf:Bag>
        </dc:subject>
      </cc:Work>
      <cc:License
         rdf:about="http://creativecommons.org/publicdomain/zero/1.0/">
        <cc:permits
           rdf:resource="http://creativecommons.org/ns#Reproduction" />
        <cc:permits
           rdf:resource="http://creativecommons.org/ns#Distribution" />
        <cc:permits
           rdf:resource="http://creativecommons.org/ns#DerivativeWorks" />
      </cc:License>
    </rdf:RDF>
  </metadata>
</svg>
